{
    "asset" : {
        "generator" : "Khronos glTF Blender I/O v1.6.16",
        "version" : "2.0"
    },
    "scene" : 0,
    "scenes" : [
        {
            "name" : "Scene",
            "nodes" : [
                0
            ]
        }
    ],
    "nodes" : [
        {
            "mesh" : 0,
            "name" : "Keycaps"
        }
    ],
    "materials" : [
        {
            "doubleSided" : true,
            "name" : "MaterialKeycaps",
            "pbrMetallicRoughness" : {
                "baseColorFactor" : [
                    0.800000011920929,
                    0.800000011920929,
                    0.800000011920929,
                    1
                ],
                "metallicFactor" : 0.4779411852359772,
                "roughnessFactor" : 0.5
            }
        },
        {
            "doubleSided" : true,
            "name" : "FlecheNoir",
            "pbrMetallicRoughness" : {
                "baseColorFactor" : [
                    0,
                    0,
                    0,
                    1
                ],
                "metallicFactor" : 0.49264705181121826,
                "roughnessFactor" : 0.5
            }
        }
    ],
    "meshes" : [
        {
            "name" : "Plane",
            "primitives" : [
                {
                    "attributes" : {
                        "POSITION" : 0,
                        "NORMAL" : 1,
                        "TEXCOORD_0" : 2
                    },
                    "indices" : 3,
                    "material" : 0
                },
                {
                    "attributes" : {
                        "POSITION" : 4,
                        "NORMAL" : 5,
                        "TEXCOORD_0" : 6
                    },
                    "indices" : 7,
                    "material" : 1
                }
            ]
        }
    ],
    "accessors" : [
        {
            "bufferView" : 0,
            "componentType" : 5126,
            "count" : 3008,
            "max" : [
                9,
                12.030484199523926,
                9
            ],
            "min" : [
                -9,
                0,
                -9
            ],
            "type" : "VEC3"
        },
        {
            "bufferView" : 1,
            "componentType" : 5126,
            "count" : 3008,
            "type" : "VEC3"
        },
        {
            "bufferView" : 2,
            "componentType" : 5126,
            "count" : 3008,
            "type" : "VEC2"
        },
        {
            "bufferView" : 3,
            "componentType" : 5123,
            "count" : 4872,
            "type" : "SCALAR"
        },
        {
            "bufferView" : 4,
            "componentType" : 5126,
            "count" : 374,
            "max" : [
                0.9676288962364197,
                12.030484199523926,
                6.555487632751465
            ],
            "min" : [
                -0.9570139050483704,
                12.017708778381348,
                -3.3233346939086914
            ],
            "type" : "VEC3"
        },
        {
            "bufferView" : 5,
            "componentType" : 5126,
            "count" : 374,
            "type" : "VEC3"
        },
        {
            "bufferView" : 6,
            "componentType" : 5126,
            "count" : 374,
            "type" : "VEC2"
        },
        {
            "bufferView" : 7,
            "componentType" : 5123,
            "count" : 582,
            "type" : "SCALAR"
        }
    ],
    "bufferViews" : [
        {
            "buffer" : 0,
            "byteLength" : 36096,
            "byteOffset" : 0
        },
        {
            "buffer" : 0,
            "byteLength" : 36096,
            "byteOffset" : 36096
        },
        {
            "buffer" : 0,
            "byteLength" : 24064,
            "byteOffset" : 72192
        },
        {
            "buffer" : 0,
            "byteLength" : 9744,
            "byteOffset" : 96256
        },
        {
            "buffer" : 0,
            "byteLength" : 4488,
            "byteOffset" : 106000
        },
        {
            "buffer" : 0,
            "byteLength" : 4488,
            "byteOffset" : 110488
        },
        {
            "buffer" : 0,
            "byteLength" : 2992,
            "byteOffset" : 114976
        },
        {
            "buffer" : 0,
            "byteLength" : 1164,
            "byteOffset" : 117968
        }
    ],
    "buffers" : [
        {
            "byteLength" : 119132,
            "uri" : "data:application/octet-stream;base64,"
        }
    ]
}
